<svg width="100" height="100" viewBox="0 0 100 100" fill="none" xmlns="http://www.w3.org/2000/svg">
<path d="M84.7656 53.2715L52.3535 15.918C52.0605 15.58 51.6983 15.3089 51.2914 15.1231C50.8845 14.9373 50.4424 14.8412 49.9951 14.8412C49.5478 14.8412 49.1057 14.9373 48.6988 15.1231C48.2919 15.3089 47.9297 15.58 47.6367 15.918L15.2344 53.2715C15.1364 53.3841 15.073 53.5224 15.0515 53.6701C15.03 53.8177 15.0514 53.9685 15.1131 54.1043C15.1748 54.2401 15.2743 54.3554 15.3997 54.4362C15.5251 54.5171 15.6711 54.5603 15.8203 54.5605H23.7305C24.1797 54.5605 24.6094 54.3652 24.9121 54.0234L46.289 29.3848V84.375C46.289 84.8047 46.6406 85.1562 47.0703 85.1562H52.9297C53.3594 85.1562 53.7109 84.8047 53.7109 84.375V29.3848L75.0879 54.0234C75.3809 54.3652 75.8105 54.5605 76.2695 54.5605H84.1797C84.8437 54.5605 85.2051 53.7793 84.7656 53.2715Z" fill="white"/>
</svg>
