<svg width="668" height="779" viewBox="0 0 668 779" fill="none" xmlns="http://www.w3.org/2000/svg">
<path d="M447.375 294.625L441.039 304.164C440.367 305.156 426.102 325.648 402.734 326.492C404.766 316.102 406.414 305.461 407.625 294.625H92.375C93.5859 305.461 95.2344 316.102 97.2656 326.5C73.8828 325.656 59.6172 305.164 58.9453 304.172L52.625 294.625L15.625 335.344L22.5859 342.727C23.0078 343.18 64.6094 388.156 64.6094 466.992C64.6094 504.687 76.8047 518.742 87.0234 523.898C90.7722 525.785 94.9127 526.762 99.1094 526.75C108.719 526.75 119.039 521.875 128.391 512.586C140.875 500.18 151.125 479.758 158.211 462.648C175.953 483.367 196.344 498.352 218.352 505.805V635.398C166.195 651.5 127.734 700.875 127.734 700.875V716.5H92.3203V763.375H407.687V716.5H372.258V700.875C372.258 700.875 333.789 651.484 281.633 635.406V505.82C303.648 498.375 324.047 483.383 341.789 462.664C348.875 479.766 359.133 500.195 371.609 512.594C380.945 521.875 391.281 526.75 400.875 526.75C405.102 526.75 409.18 525.82 412.977 523.898C423.203 518.758 435.375 504.695 435.375 466.992C435.375 388.156 476.969 343.172 477.398 342.734L484.375 335.336L447.375 294.625ZM116.117 497.094C108.383 504.766 100.141 507.805 94.6016 505.016C87.2891 501.32 83.0937 487.469 83.0937 467C83.0937 398.266 54.9141 352.945 41.7891 335.586L51.2188 325.203C60.3438 334.797 77.8906 348.625 101.922 347.203C111.469 384.789 126.281 418.391 144.859 445.258C138.633 461.75 128.414 484.891 116.117 497.094V497.094ZM328.125 751.656H171.875V728.219H328.125V751.656ZM328.078 692.25H171.828C171.82 692.25 198.031 646.734 249.992 646.734C301.82 646.734 328.086 692.25 328.078 692.25ZM233.977 631.734V509.789C239.25 510.672 244.586 511.172 250 511.172C255.398 511.172 260.742 510.68 266.008 509.789V631.734C260.718 630.833 255.366 630.352 250 630.297C244.555 630.305 239.234 630.898 233.977 631.734V631.734ZM250 490.367C176.188 490.367 148.273 395.422 136.719 315.43H363.281C351.727 395.414 323.812 490.367 250 490.367ZM416.898 466.984C416.898 487.461 412.703 501.32 405.391 505C399.836 507.805 391.594 504.773 383.875 497.094C371.594 484.883 361.352 461.758 355.125 445.266C373.711 418.398 388.523 384.789 398.07 347.203C422.109 348.609 439.633 334.797 448.75 325.195L458.18 335.57C445.086 352.938 416.898 398.258 416.898 466.984" fill="url(#paint0_linear_25_264)" fill-opacity="0.13"/>
<defs>
<linearGradient id="paint0_linear_25_264" x1="250" y1="294.625" x2="250" y2="763.375" gradientUnits="userSpaceOnUse">
<stop offset="0.578125" stop-color="#560074"/>
<stop offset="0.864583" stop-color="#560074" stop-opacity="0"/>
</linearGradient>
</defs>
</svg>
