<svg width="96" height="96" viewBox="0 0 96 96" fill="none" xmlns="http://www.w3.org/2000/svg">
<g clip-path="url(#clip0_162_13)">
<path fill-rule="evenodd" clip-rule="evenodd" d="M11.31 3.0659C12.3599 2.01764 13.6205 1.20445 15.0084 0.680244C16.3963 0.156035 17.8797 -0.0672312 19.3605 0.0252421C20.8412 0.117715 22.2853 0.523816 23.5972 1.21663C24.9091 1.90945 26.0588 2.87316 26.97 4.0439L37.74 17.8799C39.714 20.4179 40.41 23.7239 39.63 26.8439L36.348 39.9839C36.1783 40.6645 36.1875 41.3774 36.3746 42.0534C36.5618 42.7294 36.9205 43.3455 37.416 43.8419L52.158 58.5839C52.655 59.0804 53.2722 59.4398 53.9493 59.6269C54.6265 59.8141 55.3406 59.8227 56.022 59.6519L69.156 56.3699C70.6957 55.9849 72.3028 55.955 73.8557 56.2825C75.4086 56.6099 76.8668 57.2861 78.12 58.2599L91.956 69.0239C96.93 72.8939 97.386 80.2439 92.934 84.6899L86.73 90.8939C82.29 95.3339 75.654 97.2839 69.468 95.1059C53.6351 89.5351 39.2597 80.4709 27.408 68.5859C15.5238 56.736 6.45967 42.3627 0.888018 26.5319C-1.28398 20.3519 0.666018 13.7099 5.10602 9.2699L11.31 3.0659Z" fill="#21002D"/>
</g>
<defs>
<clipPath id="clip0_162_13">
<rect width="96" height="96" fill="white"/>
</clipPath>
</defs>
</svg>
